<svg width="105" height="25" viewBox="0 0 105 25" fill="none" xmlns="http://www.w3.org/2000/svg">
<path d="M54.6438 19.6342C53.5703 19.6342 52.5715 19.4508 51.6475 19.0839C50.7234 18.7034 49.9081 18.1802 49.2014 17.5143C48.5084 16.8349 47.9648 16.0535 47.5707 15.1702C47.1902 14.2733 47 13.3085 47 12.2757C47 11.243 47.1902 10.2849 47.5707 9.40165C47.9648 8.50477 48.5016 7.7234 49.181 7.05754C49.8741 6.37809 50.6826 5.85491 51.6067 5.488C52.5307 5.10751 53.5227 4.91726 54.5827 4.91726C55.7921 4.91726 56.9336 5.16866 58.0071 5.67145C59.0807 6.16066 59.9572 6.84011 60.6366 7.70981L58.1702 9.93163C57.7082 9.33371 57.1714 8.88527 56.5599 8.58631C55.962 8.28735 55.3029 8.13787 54.5827 8.13787C54.012 8.13787 53.482 8.24658 52.9928 8.46401C52.5172 8.66784 52.0959 8.95321 51.729 9.32012C51.3757 9.68702 51.0971 10.1219 50.8933 10.6247C50.703 11.1275 50.6079 11.6778 50.6079 12.2757C50.6079 12.8737 50.7098 13.4308 50.9136 13.9472C51.1175 14.45 51.4029 14.8916 51.7698 15.2721C52.1503 15.639 52.5851 15.9312 53.0743 16.1486C53.5771 16.3525 54.1207 16.4544 54.705 16.4544C55.2621 16.4544 55.7649 16.3593 56.2134 16.169C56.6754 15.9788 57.0695 15.7138 57.3956 15.374C57.7218 15.0343 57.9528 14.647 58.0887 14.2122H54.2362V11.175H61.88V12.1942C61.88 13.2677 61.6966 14.2597 61.3297 15.1702C60.9764 16.0671 60.4736 16.8553 59.8213 17.5347C59.1826 18.2006 58.4216 18.717 57.5383 19.0839C56.655 19.4508 55.6902 19.6342 54.6438 19.6342Z" fill="#1C72CA"/>
<path d="M67.5854 19.6138C66.7428 19.6138 65.9954 19.4304 65.3432 19.0635C64.7045 18.6966 64.2017 18.187 63.8348 17.5347C63.4679 16.8688 63.2844 16.1146 63.2844 15.2721V8.62708H66.5866V14.8237C66.5866 15.408 66.7632 15.8836 67.1165 16.2505C67.4834 16.6039 67.9591 16.7805 68.5434 16.7805C68.9646 16.7805 69.3383 16.7058 69.6645 16.5563C69.9906 16.4068 70.2624 16.1962 70.4798 15.9244V8.62708H73.782V19.41H70.4798V18.6762C69.6645 19.3013 68.6997 19.6138 67.5854 19.6138Z" fill="#1C72CA"/>
<path d="M75.6232 19.41V8.62708H78.9253V19.41H75.6232ZM77.2743 7.62828C76.7715 7.62828 76.3434 7.45162 75.9901 7.09831C75.6368 6.74499 75.4601 6.31693 75.4601 5.81414C75.4601 5.31134 75.6368 4.88329 75.9901 4.52997C76.3434 4.17666 76.7715 4 77.2743 4C77.777 4 78.2051 4.17666 78.5584 4.52997C78.9117 4.88329 79.0884 5.31134 79.0884 5.81414C79.0884 6.31693 78.9117 6.74499 78.5584 7.09831C78.2051 7.45162 77.777 7.62828 77.2743 7.62828Z" fill="#1C72CA"/>
<path d="M85.7685 19.5527C84.7493 19.5527 83.8184 19.3081 82.9759 18.8189C82.147 18.3161 81.4879 17.6502 80.9987 16.8213C80.5095 15.9788 80.2649 15.0411 80.2649 14.0083C80.2649 12.9756 80.5095 12.0447 80.9987 11.2158C81.5015 10.3733 82.1742 9.70741 83.0167 9.2182C83.8728 8.72899 84.824 8.48439 85.8704 8.48439C86.3732 8.48439 86.8556 8.54554 87.3176 8.66784C87.7797 8.79014 88.2145 8.9668 88.6222 9.19782V5.14148L91.9243 4.63189V19.41H88.6629V18.615C87.8068 19.2401 86.842 19.5527 85.7685 19.5527ZM86.3392 16.7397C86.8012 16.7397 87.2225 16.6718 87.603 16.5359C87.9835 16.3864 88.3232 16.169 88.6222 15.8836V12.1127C88.3368 11.8409 87.9971 11.6371 87.603 11.5012C87.2089 11.3517 86.7877 11.2769 86.3392 11.2769C85.8092 11.2769 85.3268 11.3992 84.892 11.6438C84.4707 11.8749 84.131 12.201 83.8728 12.6223C83.6282 13.0299 83.5059 13.492 83.5059 14.0083C83.5059 14.5247 83.6282 14.9936 83.8728 15.4148C84.131 15.8225 84.4707 16.1486 84.892 16.3932C85.3268 16.6242 85.8092 16.7397 86.3392 16.7397Z" fill="#1C72CA"/>
<path d="M99.149 19.6138C98.0483 19.6138 97.0495 19.3692 96.1526 18.88C95.2694 18.3772 94.5695 17.7046 94.0531 16.862C93.5367 16.0195 93.2786 15.0751 93.2786 14.0287C93.2786 12.9824 93.5232 12.0379 94.0124 11.1954C94.5152 10.3529 95.1946 9.68702 96.0507 9.19782C96.9068 8.69502 97.8581 8.44362 98.9044 8.44362C99.9644 8.44362 100.902 8.70182 101.717 9.2182C102.533 9.721 103.171 10.414 103.633 11.2973C104.109 12.1806 104.347 13.193 104.347 14.3345V15.1498H96.6622C96.8117 15.4896 97.0088 15.7885 97.2534 16.0467C97.5115 16.3049 97.8173 16.5087 98.1706 16.6582C98.5239 16.7941 98.9044 16.862 99.3121 16.862C99.7605 16.862 100.168 16.7941 100.535 16.6582C100.902 16.5087 101.215 16.3049 101.473 16.0467L103.654 17.9831C102.974 18.5539 102.275 18.9684 101.554 19.2265C100.848 19.4847 100.046 19.6138 99.149 19.6138ZM96.6011 12.8465H101.106C100.997 12.4932 100.827 12.1942 100.596 11.9496C100.379 11.6914 100.121 11.4944 99.8217 11.3585C99.5227 11.209 99.1966 11.1343 98.8433 11.1343C98.4764 11.1343 98.1434 11.2022 97.8445 11.3381C97.5455 11.474 97.2873 11.671 97.0699 11.9292C96.8661 12.1738 96.7098 12.4796 96.6011 12.8465Z" fill="#1C72CA"/>
<path d="M39.8716 24.101H0.942871V0.0697632H39.8716V24.101ZM27.6177 19.143L35.4116 5.02289H19.8237L27.6177 19.143ZM5.86963 5.02582V19.0258H11.8696L12.2134 19.018C13.0151 18.9786 13.8051 18.8014 14.5483 18.4936C15.3976 18.1418 16.1698 17.626 16.8198 16.976C17.4697 16.326 17.9847 15.5537 18.3364 14.7045C18.6881 13.8553 18.8696 12.945 18.8696 12.0258C18.8696 11.1067 18.6882 10.1963 18.3364 9.34711C17.9847 8.49811 17.4696 7.72645 16.8198 7.0766C16.1698 6.42659 15.3976 5.9108 14.5483 5.55902C13.6991 5.20726 12.7889 5.02582 11.8696 5.02582H5.86963Z" fill="#1C72CA"/>
</svg>
