<svg width="32" height="32" viewBox="0 0 32 32" fill="none" xmlns="http://www.w3.org/2000/svg">
<rect width="32" height="32" fill="white"/>
<path d="M29 28H3V12H29V28ZM10.9434 18L9 25H10.5859L10.9336 23.6299H12.79L13.1289 25H14.7822L12.8389 18H10.9434ZM20.9912 18V19.4404L23.8438 19.4102L20.9727 23.8799V25H26V23.5596L23.1191 23.5801L25.9707 19.1201V18H20.9912ZM15.9092 21.46V22.8096H19.4678V21.46H15.9092ZM12.4619 22.2998H11.2725L11.8721 19.9102L12.4619 22.2998ZM26 10H6V8H26V10ZM24 6H8V4H24V6Z" fill="black"/>
</svg>
