<svg width="32" height="32" viewBox="0 0 32 32" fill="none" xmlns="http://www.w3.org/2000/svg">
<path d="M14.625 1.625H17.375V7.375H14.625V1.625ZM14.625 24.625H17.375V30.375H14.625V24.625ZM21.1266 8.92856L25.1924 4.86269L27.137 6.80725L23.0711 10.8731L21.1266 8.92856ZM4.86344 25.1921L8.92931 21.1262L10.8739 23.0708L6.808 27.1367L4.86344 25.1921ZM24.625 14.625H30.375V17.375H24.625V14.625ZM1.625 14.625H7.375V17.375H1.625V14.625ZM21.1268 23.0713L23.0713 21.1267L27.1372 25.1926L25.1927 27.1371L21.1268 23.0713ZM4.86263 6.8075L6.80719 4.86294L10.8731 8.92881L8.9285 10.8733L4.86263 6.8075ZM16 22.375C14.7391 22.375 13.5066 22.0011 12.4582 21.3006C11.4099 20.6001 10.5928 19.6045 10.1103 18.4396C9.62776 17.2747 9.50151 15.9929 9.74749 14.7563C9.99347 13.5197 10.6006 12.3838 11.4922 11.4922C12.3838 10.6006 13.5197 9.99347 14.7563 9.74749C15.9929 9.50151 17.2747 9.62776 18.4396 10.1103C19.6045 10.5928 20.6001 11.4099 21.3006 12.4582C22.0011 13.5066 22.375 14.7391 22.375 16C22.373 17.6901 21.7007 19.3105 20.5056 20.5056C19.3105 21.7007 17.6901 22.373 16 22.375Z" fill="#16599E"/>
</svg>
